<svg 
 xmlns="http://www.w3.org/2000/svg"
>
 <defs>

    <symbol id="wifi" viewBox="0 0 54 74"> 
<text kerning="auto" font-family="AdobeArabic" fill="rgb(0, 0, 0)" transform="matrix( 0.33333333333333, 0, 0, 0.33333333333333,10.5463333333332, 73.3436666666666)" font-size="32px"><tspan font-size="32px" font-family="Montserrat" fill="#888888">WI&#45;FI</tspan></text>
<path fill-rule="evenodd"  fill-opacity="0.102" fill="rgb(94, 104, 112)"
 d="M27.333,0.667 C42.061,0.667 54.000,12.606 54.000,27.333 C54.000,42.061 42.061,54.000 27.333,54.000 C12.606,54.000 0.667,42.061 0.667,27.333 C0.667,12.606 12.606,0.667 27.333,0.667 M36.332,26.375 C36.035,25.983 35.718,25.602 35.358,25.246 C31.264,21.204 24.627,21.204 20.534,25.246 C20.173,25.602 19.856,25.983 19.559,26.375 L17.954,24.790 C18.261,24.406 18.587,24.032 18.946,23.678 C23.916,18.770 31.975,18.770 36.946,23.678 C37.305,24.032 37.630,24.406 37.937,24.790 L36.332,26.375 ZM26.358,34.133 C25.480,33.267 25.480,31.862 26.358,30.997 C27.235,30.130 28.657,30.130 29.534,30.997 C30.411,31.862 30.411,33.267 29.534,34.133 C28.657,34.999 27.235,34.999 26.358,34.133 ZM24.240,28.906 C23.869,29.271 23.590,29.688 23.353,30.121 L21.700,28.488 C21.972,28.082 22.289,27.695 22.652,27.337 C25.575,24.450 30.316,24.450 33.240,27.337 C33.603,27.695 33.919,28.082 34.192,28.488 L32.538,30.121 C32.302,29.688 32.022,29.271 31.652,28.906 C29.605,26.885 26.287,26.885 24.240,28.906 Z"></path>
 </symbol>
 </defs>
</svg>