<svg 
 xmlns="http://www.w3.org/2000/svg"
 xmlns:xlink="http://www.w3.org/1999/xlink"
viewBox="0 0 18 18">
<path fill-rule="evenodd"  fill="rgb(170, 170, 170)"
 d="M16.000,17.333 L15.531,17.333 L1.802,17.333 L1.333,17.333 C0.597,17.333 0.000,16.736 0.000,16.000 L0.000,15.167 L0.000,6.500 L0.000,5.667 C0.000,4.930 0.597,4.333 1.333,4.333 L1.802,4.333 L15.531,4.333 L16.000,4.333 C16.736,4.333 17.333,4.930 17.333,5.667 L17.333,6.500 L17.333,15.167 L17.333,16.000 C17.333,16.736 16.736,17.333 16.000,17.333 ZM2.167,6.500 L2.167,15.167 L15.167,15.167 L15.167,6.500 L2.167,6.500 ZM6.552,11.552 L5.000,11.552 C4.632,11.552 4.333,11.253 4.333,10.885 L4.333,9.333 C4.333,8.965 4.632,8.667 5.000,8.667 L6.552,8.667 C6.920,8.667 7.219,8.965 7.219,9.333 L7.219,10.885 C7.219,11.253 6.920,11.552 6.552,11.552 ZM16.583,2.167 L0.750,2.167 C0.336,2.167 0.000,1.831 0.000,1.417 L0.000,0.750 C0.000,0.336 0.336,0.000 0.750,0.000 L16.583,0.000 C16.998,0.000 17.333,0.336 17.333,0.750 L17.333,1.417 C17.333,1.831 16.998,2.167 16.583,2.167 Z"/>
</svg>