<svg 
 xmlns="http://www.w3.org/2000/svg"
 xmlns:xlink="http://www.w3.org/1999/xlink"
viewBox="0 0 54 54">
<path fill-rule="evenodd"  fill-opacity="0.102" fill="rgb(94, 104, 112)"
 d="M26.667,0.667 C41.394,0.667 53.333,12.606 53.333,27.333 C53.333,42.061 41.394,54.000 26.667,54.000 C11.939,54.000 -0.000,42.061 -0.000,27.333 C-0.000,12.606 11.939,0.667 26.667,0.667 Z"/>
<path fill-rule="evenodd"  fill="rgb(94, 104, 112)"
 d="M36.281,21.645 C36.270,21.662 36.260,21.678 36.250,21.695 C36.248,21.697 36.248,21.697 36.248,21.697 C35.048,23.590 33.624,25.379 31.973,27.029 C30.994,28.008 29.567,28.270 28.328,27.821 C28.327,27.820 28.326,27.819 28.325,27.817 C28.297,27.805 28.269,27.794 28.240,27.787 C28.036,27.726 27.808,27.775 27.648,27.935 C27.639,27.943 27.633,27.950 27.626,27.957 L27.625,27.956 C26.410,29.277 24.337,31.540 22.594,33.457 C21.391,34.781 20.345,35.942 19.843,36.520 C19.832,36.533 19.821,36.546 19.808,36.558 C19.528,36.856 19.113,37.005 18.688,37.000 C18.261,36.996 17.824,36.836 17.500,36.517 C17.497,36.515 17.494,36.512 17.492,36.509 C17.489,36.506 17.486,36.504 17.483,36.501 C17.165,36.177 17.006,35.739 17.002,35.312 C16.996,34.889 17.145,34.474 17.443,34.194 C17.455,34.182 17.468,34.170 17.481,34.159 C18.059,33.657 19.220,32.611 20.545,31.409 C22.464,29.667 24.728,27.595 26.048,26.380 C26.055,26.373 26.062,26.366 26.070,26.358 C26.230,26.199 26.279,25.968 26.217,25.762 C26.216,25.762 26.216,25.762 26.217,25.760 C26.209,25.733 26.198,25.708 26.186,25.683 C25.734,24.444 25.996,23.015 26.976,22.035 C28.625,20.386 30.415,18.962 32.308,17.764 C32.330,17.750 32.350,17.738 32.370,17.725 C32.371,17.724 32.373,17.723 32.375,17.721 C32.557,17.628 32.791,17.659 32.949,17.816 C33.139,18.006 33.145,18.310 32.963,18.500 C32.955,18.506 32.932,18.526 32.894,18.559 C32.621,18.798 31.561,19.731 30.131,21.104 C29.696,21.521 29.226,21.981 28.734,22.473 C28.499,22.708 28.502,23.093 28.742,23.333 C28.967,23.557 29.319,23.574 29.556,23.382 C29.558,23.381 29.559,23.380 29.561,23.379 C29.574,23.367 29.587,23.356 29.600,23.343 L29.602,23.341 L31.440,21.668 L33.898,19.432 C34.083,19.248 34.384,19.251 34.571,19.438 C34.759,19.625 34.762,19.926 34.577,20.110 L32.340,22.567 L30.672,24.400 C30.670,24.401 30.669,24.403 30.666,24.405 C30.651,24.420 30.636,24.437 30.623,24.453 C30.433,24.690 30.451,25.039 30.674,25.261 C30.913,25.500 31.296,25.503 31.530,25.269 C32.026,24.773 32.485,24.303 32.903,23.870 C34.291,22.427 35.215,21.385 35.451,21.114 C35.484,21.077 35.504,21.053 35.510,21.046 C35.700,20.864 36.004,20.870 36.194,21.060 C36.354,21.220 36.384,21.461 36.281,21.645 ZM17.292,18.976 L17.293,18.975 C17.287,18.844 17.335,18.709 17.437,18.607 C17.627,18.417 17.935,18.415 18.124,18.604 L24.000,24.478 L24.000,25.667 L21.693,27.644 C18.017,23.452 17.339,20.471 17.292,18.976 ZM33.692,34.168 C33.705,34.180 33.718,34.191 33.730,34.203 C34.327,34.765 34.327,35.859 33.700,36.497 C33.697,36.500 33.694,36.502 33.692,36.504 C33.689,36.508 33.687,36.510 33.683,36.513 C33.046,37.140 31.951,37.140 31.390,36.543 C31.377,36.531 31.365,36.519 31.354,36.505 C30.687,35.737 28.728,33.449 27.033,31.588 L28.956,29.425 C31.338,31.810 33.692,34.168 33.692,34.168 Z"/>
</svg>