<svg 
 xmlns="http://www.w3.org/2000/svg"
 xmlns:xlink="http://www.w3.org/1999/xlink"
viewBox="0 0 54 54">
<path fill-rule="evenodd"  fill-opacity="0.102" fill="rgb(94, 104, 112)"
 d="M27.333,0.000 C42.061,0.000 54.000,11.939 54.000,26.666 C54.000,41.394 42.061,53.333 27.333,53.333 C12.606,53.333 0.667,41.394 0.667,26.666 C0.667,11.939 12.606,0.000 27.333,0.000 Z"/>
<path fill-rule="evenodd"  fill="rgb(94, 104, 112)"
 d="M36.226,15.011 L32.025,15.487 C32.006,15.488 31.987,15.491 31.969,15.493 C31.969,15.493 31.969,15.493 31.968,15.494 C31.775,15.525 31.611,15.646 31.546,15.818 C31.536,15.837 31.530,15.859 31.525,15.882 C31.525,15.884 31.524,15.886 31.524,15.889 L31.000,17.621 C31.000,17.623 30.998,17.623 30.998,17.624 L30.980,17.687 C30.889,17.930 30.609,18.080 30.319,18.028 C30.008,17.973 29.804,17.701 29.867,17.422 C29.869,17.414 29.871,17.405 29.873,17.397 L29.883,17.369 L30.395,15.671 L30.399,15.671 C30.403,15.653 30.407,15.636 30.412,15.619 C30.419,15.593 30.426,15.568 30.434,15.543 C30.626,14.966 31.178,14.556 31.822,14.475 L31.888,14.467 C31.896,14.466 31.906,14.464 31.915,14.464 L36.040,13.997 C36.093,13.993 36.147,13.996 36.203,14.005 C36.515,14.061 36.719,14.333 36.656,14.612 C36.611,14.815 36.438,14.967 36.226,15.011 ZM34.188,20.379 L32.437,35.872 C32.387,36.312 31.962,36.662 31.486,36.662 L23.046,36.662 C22.571,36.662 22.146,36.312 22.096,35.872 L20.344,20.379 C20.253,19.573 20.715,18.904 21.379,18.904 L33.154,18.904 C33.817,18.904 34.280,19.573 34.188,20.379 ZM29.977,20.739 C29.993,20.788 30.004,20.839 30.002,20.892 C30.002,20.916 29.999,20.940 29.994,20.964 L29.967,21.052 L29.041,24.128 C29.041,24.128 29.041,24.129 29.041,24.130 L29.008,24.241 C28.907,24.469 28.636,24.607 28.358,24.557 C28.045,24.503 27.841,24.231 27.904,23.951 C27.908,23.936 27.912,23.920 27.917,23.906 L27.916,23.906 L28.822,20.892 L28.849,20.892 C28.847,20.853 28.850,20.813 28.859,20.773 C28.862,20.762 28.865,20.750 28.869,20.739 L22.224,20.739 L24.116,34.829 L30.734,34.829 L32.310,20.739 L29.977,20.739 ZM30.295,25.907 L29.794,32.743 L29.759,33.219 L29.757,33.219 C29.757,33.510 29.503,33.748 29.183,33.766 L29.104,33.766 L28.576,33.766 L25.984,33.766 L25.453,33.766 L25.375,33.766 C25.055,33.748 24.802,33.510 24.802,33.219 L24.800,33.219 L24.764,32.743 L24.230,25.467 C24.230,25.457 24.230,25.447 24.230,25.437 C24.230,25.151 24.455,24.913 24.757,24.858 L24.757,24.856 C25.834,24.662 26.658,24.907 27.559,25.092 C27.920,25.166 28.295,25.231 28.702,25.255 C28.956,25.269 29.221,25.267 29.506,25.240 C29.546,25.237 29.585,25.232 29.626,25.228 C29.626,25.227 29.628,25.227 29.628,25.227 C29.634,25.227 29.638,25.227 29.644,25.227 C30.005,25.227 30.298,25.487 30.303,25.808 L30.296,25.904 L30.295,25.907 Z"/>
</svg>