<!-- <svg 
 xmlns="http://www.w3.org/2000/svg"
 xmlns:xlink="http://www.w3.org/1999/xlink"
 width="4px" height="18px" viewBox="0 0 4 18">
<path fill-rule="evenodd"  fill="rgb(170, 170, 170)"
 d="M2.667,17.333 L2.000,17.333 C1.264,17.333 0.667,16.736 0.667,16.000 L0.667,15.344 C0.667,14.608 1.264,14.010 2.000,14.010 L2.667,14.010 C3.403,14.010 4.000,14.608 4.000,15.344 L4.000,16.000 C4.000,16.736 3.403,17.333 2.667,17.333 ZM2.667,10.323 L2.000,10.323 C1.264,10.323 0.667,9.726 0.667,8.989 L0.667,8.344 C0.667,7.607 1.264,7.010 2.000,7.010 L2.667,7.010 C3.403,7.010 4.000,7.607 4.000,8.344 L4.000,8.989 C4.000,9.726 3.403,10.323 2.667,10.323 ZM2.667,3.323 L2.000,3.323 C1.264,3.323 0.667,2.726 0.667,1.990 L0.667,1.333 C0.667,0.597 1.264,0.000 2.000,0.000 L2.667,0.000 C3.403,0.000 4.000,0.597 4.000,1.333 L4.000,1.990 C4.000,2.726 3.403,3.323 2.667,3.323 Z"/>
</svg> -->

<svg 
 xmlns="http://www.w3.org/2000/svg"
 xmlns:xlink="http://www.w3.org/1999/xlink"
 width="4px" height="18px">
<path fill-rule="evenodd"  fill="rgb(170, 170, 170)"
 d="M2.667,17.333 L2.000,17.333 C1.264,17.333 0.667,16.736 0.667,16.000 L0.667,15.344 C0.667,14.608 1.264,14.010 2.000,14.010 L2.667,14.010 C3.403,14.010 4.000,14.608 4.000,15.344 L4.000,16.000 C4.000,16.736 3.403,17.333 2.667,17.333 ZM2.667,10.323 L2.000,10.323 C1.264,10.323 0.667,9.726 0.667,8.989 L0.667,8.344 C0.667,7.607 1.264,7.010 2.000,7.010 L2.667,7.010 C3.403,7.010 4.000,7.607 4.000,8.344 L4.000,8.989 C4.000,9.726 3.403,10.323 2.667,10.323 ZM2.667,3.323 L2.000,3.323 C1.264,3.323 0.667,2.726 0.667,1.990 L0.667,1.333 C0.667,0.597 1.264,0.000 2.000,0.000 L2.667,0.000 C3.403,0.000 4.000,0.597 4.000,1.333 L4.000,1.990 C4.000,2.726 3.403,3.323 2.667,3.323 Z"/>
</svg>