<svg 
 xmlns="http://www.w3.org/2000/svg"
 xmlns:xlink="http://www.w3.org/1999/xlink"
 width="54px" height="54px" viewBox="0 0 54 54">
<path fill-rule="evenodd"  fill-opacity="0.102" fill="rgb(94, 104, 112)"
 d="M27.000,0.000 C41.728,0.000 53.667,11.939 53.667,26.666 C53.667,41.394 41.728,53.333 27.000,53.333 C12.272,53.333 0.333,41.394 0.333,26.666 C0.333,11.939 12.272,0.000 27.000,0.000 Z"/>
<path fill-rule="evenodd"  fill="rgb(94, 104, 112)"
 d="M32.667,37.667 L21.333,37.667 C20.229,37.667 19.333,36.771 19.333,35.667 L19.333,17.667 C19.333,16.562 20.229,15.667 21.333,15.667 L32.667,15.667 C33.771,15.667 34.667,16.562 34.667,17.667 L34.667,35.667 C34.667,36.771 33.771,37.667 32.667,37.667 ZM32.823,17.500 L21.177,17.500 L21.177,35.833 L32.823,35.833 L32.823,17.500 ZM27.000,26.666 C29.025,26.666 30.667,28.308 30.667,30.333 C30.667,32.359 29.025,34.000 27.000,34.000 C24.975,34.000 23.333,32.359 23.333,30.333 C23.333,28.308 24.975,26.666 27.000,26.666 ZM27.000,32.667 C28.289,32.667 29.333,31.622 29.333,30.333 C29.333,29.045 28.289,28.000 27.000,28.000 C25.711,28.000 24.667,29.045 24.667,30.333 C24.667,31.622 25.711,32.667 27.000,32.667 ZM27.000,29.333 C27.552,29.333 28.000,29.781 28.000,30.333 C28.000,30.886 27.552,31.333 27.000,31.333 C26.448,31.333 26.000,30.886 26.000,30.333 C26.000,29.781 26.448,29.333 27.000,29.333 ZM27.000,24.333 C25.711,24.333 24.667,23.289 24.667,22.000 C24.667,20.711 25.711,19.667 27.000,19.667 C28.289,19.667 29.333,20.711 29.333,22.000 C29.333,23.289 28.289,24.333 27.000,24.333 ZM27.000,21.000 C26.448,21.000 26.000,21.447 26.000,22.000 C26.000,22.552 26.448,23.000 27.000,23.000 C27.552,23.000 28.000,22.552 28.000,22.000 C28.000,21.447 27.552,21.000 27.000,21.000 Z"/>
</svg>