<svg 
 xmlns="http://www.w3.org/2000/svg"
 xmlns:xlink="http://www.w3.org/1999/xlink"
 viewBox="0 0 16 19">
<path fill-rule="evenodd"  fill="rgb(170, 170, 170)"
 d="M12.573,7.333 C11.600,7.333 10.726,6.915 10.102,6.249 L6.605,8.372 C6.762,8.773 6.854,9.208 6.854,9.667 C6.854,10.190 6.734,10.682 6.532,11.128 L10.019,13.187 C10.647,12.464 11.553,12.000 12.573,12.000 C14.466,12.000 16.000,13.567 16.000,15.500 C16.000,17.433 14.466,19.000 12.573,19.000 C10.680,19.000 9.146,17.433 9.146,15.500 C9.146,15.344 9.172,15.195 9.191,15.044 L5.166,12.667 C4.654,12.977 4.065,13.167 3.427,13.167 C1.534,13.167 -0.000,11.599 -0.000,9.667 C-0.000,7.734 1.534,6.167 3.427,6.167 C4.123,6.167 4.769,6.382 5.309,6.746 L9.200,4.384 C9.172,4.204 9.146,4.022 9.146,3.833 C9.146,1.900 10.680,0.333 12.573,0.333 C14.466,0.333 16.000,1.900 16.000,3.833 C16.000,5.766 14.466,7.333 12.573,7.333 ZM12.573,17.052 C13.413,17.052 14.094,16.357 14.094,15.500 C14.094,14.643 13.413,13.948 12.573,13.948 C11.733,13.948 11.052,14.643 11.052,15.500 C11.052,16.357 11.733,17.052 12.573,17.052 ZM3.427,8.114 C2.587,8.114 1.906,8.809 1.906,9.667 C1.906,10.524 2.587,11.219 3.427,11.219 C4.267,11.219 4.948,10.524 4.948,9.667 C4.948,8.809 4.267,8.114 3.427,8.114 ZM12.573,2.281 C11.733,2.281 11.052,2.976 11.052,3.833 C11.052,4.690 11.733,5.385 12.573,5.385 C13.413,5.385 14.094,4.690 14.094,3.833 C14.094,2.976 13.413,2.281 12.573,2.281 Z"/>
</svg>