<svg 
 xmlns="http://www.w3.org/2000/svg"
 xmlns:xlink="http://www.w3.org/1999/xlink"
 width="54px" height="54px" viewBox="0 0 54 54">
<path fill-rule="evenodd"  fill-opacity="0.102" fill="rgb(94, 104, 112)"
 d="M27.000,0.667 C41.728,0.667 53.667,12.606 53.667,27.333 C53.667,42.061 41.728,54.000 27.000,54.000 C12.272,54.000 0.333,42.061 0.333,27.333 C0.333,12.606 12.272,0.667 27.000,0.667 Z"/>
<path fill-rule="evenodd"  fill="rgb(94, 104, 112)"
 d="M36.333,32.667 L15.333,32.667 C14.781,32.667 14.333,32.219 14.333,31.667 C14.333,31.114 14.781,30.667 15.333,30.667 L36.333,30.667 C36.886,30.667 37.333,31.114 37.333,31.667 C37.333,32.219 36.886,32.667 36.333,32.667 ZM35.052,21.146 L31.750,21.146 C31.711,21.146 31.677,21.129 31.640,21.124 L29.307,23.504 L35.000,29.313 L27.000,29.313 L25.307,27.586 L23.832,29.090 C23.520,29.409 23.013,29.409 22.701,29.090 C22.388,28.772 22.388,28.255 22.701,27.936 L30.620,19.855 C30.821,19.650 31.098,19.591 31.356,19.649 C31.472,19.575 31.602,19.521 31.750,19.521 L35.052,19.521 C35.466,19.521 35.802,19.857 35.802,20.271 L35.802,20.396 C35.802,20.810 35.466,21.146 35.052,21.146 ZM23.333,24.000 C22.045,24.000 21.000,22.956 21.000,21.667 C21.000,20.378 22.045,19.333 23.333,19.333 C24.622,19.333 25.667,20.378 25.667,21.667 C25.667,22.956 24.622,24.000 23.333,24.000 ZM19.667,34.000 L36.333,34.000 C36.886,34.000 37.333,34.448 37.333,35.000 C37.333,35.552 36.886,36.000 36.333,36.000 L19.667,36.000 C19.114,36.000 18.667,35.552 18.667,35.000 C18.667,34.448 19.114,34.000 19.667,34.000 Z"/>
</svg>