<svg 
 xmlns="http://www.w3.org/2000/svg"
 xmlns:xlink="http://www.w3.org/1999/xlink"
 viewBox="0 0 88 47">
<path fill-rule="evenodd"  fill="rgb(204, 204, 204)"
 d="M70.500,6.833 C79.705,6.833 87.167,14.295 87.167,23.500 C87.167,32.705 79.705,40.166 70.500,40.166 C61.295,40.166 53.833,32.705 53.833,23.500 C53.833,14.295 61.295,6.833 70.500,6.833 Z"/>
<path fill-rule="evenodd"  stroke-width="3px" stroke="rgb(242, 242, 242)" fill="rgb(204, 204, 204)"
 d="M47.167,6.833 C56.371,6.833 63.833,14.295 63.833,23.500 C63.833,32.705 56.371,40.166 47.167,40.166 C37.962,40.166 30.500,32.705 30.500,23.500 C30.500,14.295 37.962,6.833 47.167,6.833 Z"/>
<path fill-rule="evenodd"  stroke-width="3px" stroke="rgb(242, 242, 242)" fill="rgb(204, 204, 204)"
 d="M23.833,6.833 C33.038,6.833 40.500,14.295 40.500,23.500 C40.500,32.705 33.038,40.166 23.833,40.166 C14.629,40.166 7.167,32.705 7.167,23.500 C7.167,14.295 14.629,6.833 23.833,6.833 Z"/>
</svg>